<?xml version="1.0" standalone="no"?>
<!DOCTYPE svg PUBLIC "-//W3C//DTD SVG 20010904//EN"
 "http://www.w3.org/TR/2001/REC-SVG-20010904/DTD/svg10.dtd">
<svg version="1.0" xmlns="http://www.w3.org/2000/svg"
 width="204.000000pt" height="204.000000pt" viewBox="0 0 204.000000 204.000000"
 preserveAspectRatio="xMidYMid meet">
<metadata>
Created by potrace 1.11, written by Peter Selinger 2001-2013
</metadata>
<g transform="translate(0.000000,204.000000) scale(0.100000,-0.100000)"
fill="#000000" stroke="none">
<path d="M561 1858 c-52 -9 -93 -37 -123 -86 l-23 -37 -2 -488 c-1 -269 -4
-491 -7 -494 -3 -3 -34 -5 -70 -4 l-65 1 -3 -83 c-5 -148 19 -215 93 -257 34
-18 54 -20 211 -21 95 0 188 0 205 1 26 0 36 6 48 30 8 16 15 31 15 34 0 3
-99 6 -220 8 l-220 3 -27 28 c-26 25 -28 34 -28 105 l0 77 295 1 c162 1 300 2
306 3 10 1 34 43 34 61 0 5 -108 8 -244 7 -211 -2 -245 0 -248 13 -2 8 -4 227
-3 486 0 434 2 472 18 498 10 15 29 31 43 36 31 12 834 14 834 2 0 -4 -6 -14
-12 -20 -9 -9 -14 -58 -16 -152 l-4 -140 36 0 35 0 3 53 3 52 130 1 c72 1 136
2 144 3 11 1 13 19 9 85 -4 72 -8 89 -31 119 -15 19 -43 45 -62 57 -36 22 -39
22 -525 24 -268 0 -507 -2 -529 -6z m1038 -95 c24 -21 34 -39 38 -70 4 -29 2
-43 -6 -44 -6 0 -40 0 -76 0 -36 0 -81 0 -101 0 l-37 1 6 43 c8 56 52 97 105
97 27 0 47 -8 71 -27z"/>
<path d="M620 1572 c-31 -11 -37 -34 -14 -56 12 -12 20 -13 35 -6 34 19 16 75
-21 62z"/>
<path d="M716 1564 c-22 -21 -20 -41 5 -54 24 -14 49 2 49 31 0 28 -35 43 -54
23z"/>
<path d="M932 1566 c-21 -27 -20 -44 4 -55 14 -6 27 -11 29 -11 10 0 24 40 19
53 -7 20 -41 28 -52 13z"/>
<path d="M1040 1573 c-11 -3 -16 -18 -18 -55 -3 -100 -48 -194 -127 -266 -78
-71 -144 -99 -252 -106 -47 -4 -48 -4 -51 -41 l-3 -37 53 3 c117 5 230 55 313
138 62 60 93 111 118 191 18 58 30 169 19 171 -4 0 -14 2 -22 3 -8 1 -22 1
-30 -1z"/>
<path d="M1152 1571 c-18 -11 -23 -48 -7 -61 19 -16 55 4 55 30 0 22 -30 42
-48 31z"/>
<path d="M813 1554 c-6 -17 6 -45 23 -51 21 -7 47 23 40 45 -9 27 -53 30 -63
6z"/>
<path d="M606 1454 c-21 -20 -20 -34 1 -49 24 -18 53 -1 53 29 0 13 -7 27 -16
30 -21 8 -20 8 -38 -10z"/>
<path d="M752 1421 c-21 -13 -11 -55 14 -59 30 -4 48 21 34 47 -11 22 -27 26
-48 12z"/>
<path d="M1180 1386 c-16 -16 -12 -44 8 -58 15 -11 17 -30 17 -148 l0 -135
-158 -317 c-93 -184 -161 -333 -164 -356 -7 -50 26 -114 74 -143 31 -20 48
-20 423 -20 365 0 392 1 427 20 49 24 88 97 80 146 -3 18 -76 174 -163 347
l-157 313 -1 140 c-1 124 0 142 16 153 21 15 24 47 6 59 -19 11 -397 10 -408
-1z m306 -68 c2 -3 5 -70 6 -149 l1 -144 42 -85 43 -85 -192 1 c-105 1 -192 2
-193 3 -1 0 16 36 39 79 l41 77 3 155 c1 85 2 155 3 155 106 0 203 -3 207 -7z
m128 -539 c2 -2 50 -96 105 -208 107 -215 109 -224 68 -269 l-21 -23 -386 3
c-506 4 -483 -16 -330 292 61 125 107 206 117 208 24 4 443 2 447 -3z"/>
<path d="M1284 616 c-7 -30 1 -46 25 -46 29 0 45 25 31 49 -15 29 -48 27 -56
-3z"/>
<path d="M1493 490 c-54 -21 -45 -92 13 -98 37 -4 57 17 52 54 -4 34 -35 55
-65 44z"/>
<path d="M600 1341 c-15 -30 -2 -53 29 -49 19 2 27 10 29 27 6 39 -39 56 -58
22z"/>
<path d="M856 1344 c-12 -12 -13 -20 -6 -35 12 -21 40 -25 58 -7 16 16 15 23
-4 42 -19 20 -29 20 -48 0z"/>
<path d="M602 1238 c-16 -16 -15 -33 3 -48 21 -18 55 -3 55 25 0 32 -35 46
-58 23z"/>
<path d="M1036 1201 c-20 -21 -12 -47 15 -54 27 -7 52 19 39 43 -14 26 -36 31
-54 11z"/>
<path d="M618 1033 c-31 -8 -33 -55 -3 -67 8 -3 24 3 35 12 21 17 21 18 3 38
-10 12 -25 19 -35 17z"/>
<path d="M606 914 c-20 -19 -20 -29 0 -48 11 -12 20 -13 34 -6 26 14 31 36 11
54 -22 20 -26 20 -45 0z"/>
</g>
</svg>
